<svg xmlns="http://www.w3.org/2000/svg" width="45" height="32"><path d="m44.871 13.396-3.56-6.106c-1.22-2.062-2.373-3.266-4.679-3.47a.913.913 0 0 0-.237-.03h-7.123V1.88A1.87 1.87 0 0 0 27.415 0H1.857A1.87 1.87 0 0 0 0 1.88v23.537c0 1.037.833 1.88 1.857 1.88h1.938C4.238 29.964 6.533 32 9.29 32a5.602 5.602 0 0 0 5.494-4.702h15.482C30.71 29.963 33.004 32 35.762 32a5.602 5.602 0 0 0 5.494-4.702h2.815a.934.934 0 0 0 .929-.94V13.874a.95.95 0 0 0-.129-.478ZM1.857 1.88h25.558v23.537h-12.63a5.602 5.602 0 0 0-5.495-4.702 5.603 5.603 0 0 0-5.496 4.702H1.857V1.88Zm39.399 23.537a5.602 5.602 0 0 0-5.494-4.702 5.603 5.603 0 0 0-5.496 4.702h-.994V5.67h6.625c.712 0 1.263.092 1.732.3a2.929 2.929 0 0 1 .846.582H31.99a.934.934 0 0 0-.928.94v4.706a2.829 2.829 0 0 0 2.574 2.83.92.92 0 0 0 .23.029h6.38a2.826 2.826 0 0 0-.758 1.698 2.872 2.872 0 0 0-.01.244v1.85a.934.934 0 0 0 .928.94h2.737v5.63h-1.887ZM4.682 5.67H24.59c.513 0 .928-.42.928-.94a.934.934 0 0 0-.928-.94H4.68a.934.934 0 0 0-.928.94c0 .52.416.94.929.94Zm37.904 7.507h-8.53a.923.923 0 0 0-.19-.02.954.954 0 0 1-.947-.959V8.431h6.9l2.767 4.745ZM5.573 26.357A3.744 3.744 0 0 0 9.29 30.12c2.049 0 3.716-1.688 3.716-3.763a3.744 3.744 0 0 0-3.716-3.762c-2.05 0-3.717 1.688-3.717 3.762Zm26.471 0a3.744 3.744 0 0 0 3.718 3.763 3.744 3.744 0 0 0 3.716-3.763 3.744 3.744 0 0 0-3.716-3.762c-2.05 0-3.718 1.688-3.718 3.762Zm10.22-10.299a.935.935 0 0 0-.93.94v.91h1.809v-1.85h-.88Z" fill="rgba(241, 109, 127, 1)" fill-rule="evenodd" data-name="Forma 1"/></svg>