<svg xmlns="http://www.w3.org/2000/svg" width="31.995" height="29" viewBox="0 8 31.995 29"><g data-name="Icon"><path d="M1.184 10.364h3.393L9.41 27.82c.138.512.611.866 1.144.866h14.855c.473 0 .887-.276 1.085-.709l5.405-12.412c.064-.153.096-.312.096-.47a1.198 1.198 0 0 0-.195-.653 1.176 1.176 0 0 0-.986-.532H14.4c-.651 0-1.184.532-1.184 1.183 0 .65.533 1.182 1.184 1.182h14.598l-4.38 10.047H11.443L6.609 8.867A1.183 1.183 0 0 0 5.464 8h-4.28A1.186 1.186 0 0 0 0 9.182a1.186 1.186 0 0 0 1.184 1.182ZM9.43 37a2.684 2.684 0 0 0 2.682-2.68 2.684 2.684 0 0 0-2.682-2.678 2.684 2.684 0 0 0-2.683 2.679A2.684 2.684 0 0 0 9.43 37Zm16.768 0h.197a2.678 2.678 0 0 0 1.835-.926c.473-.532.69-1.221.65-1.95a2.688 2.688 0 0 0-2.68-2.488 2.719 2.719 0 0 0-.18.006c-1.48.098-2.584 1.398-2.485 2.856.098 1.399 1.262 2.502 2.663 2.502Z" fill="rgba(34, 34, 34, 1)" fill-rule="evenodd" data-name="Forma 1"/></g></svg>