<svg xmlns="http://www.w3.org/2000/svg" width="25.996" height="24" viewBox="206 15 25.996 24"><path d="M206.962 16.957h2.757l3.927 14.445a.964.964 0 0 0 .93.717h12.068a.963.963 0 0 0 .882-.587l4.392-10.27c.128-.31.096-.653-.08-.93a.95.95 0 0 0-.802-.44h-13.335a.973.973 0 0 0-.962.977.973.973 0 0 0 .962.979h11.86l-3.558 8.315h-10.707l-3.926-14.445a.964.964 0 0 0-.93-.718h-3.478a.973.973 0 0 0-.962.978.973.973 0 0 0 .962.979Zm6.7 22.043a2.201 2.201 0 0 0 2.18-2.218 2.201 2.201 0 0 0-2.18-2.217 2.201 2.201 0 0 0-2.18 2.217c0 1.223.977 2.218 2.18 2.218Zm13.624 0h.16a2.162 2.162 0 0 0 1.49-.766 2.212 2.212 0 0 0 .533-1.476 2.61 2.61 0 0 0-.003-.138 2.2 2.2 0 0 0-2.178-2.06 2.168 2.168 0 0 0-.147.005 2.206 2.206 0 0 0-2.024 2.215 2.26 2.26 0 0 0 .005.15 2.201 2.201 0 0 0 2.164 2.07Z" fill="rgba(239, 91, 112, 1)" fill-rule="evenodd" data-name="Forma 1 copy"/></svg>