<svg xmlns="http://www.w3.org/2000/svg" width="47.032" height="34.979"><path d="M42.39 8.539a4.6 4.6 0 0 0-4.648 4.542 4.468 4.468 0 0 0 1.56 3.372l-5.861 2.06-8.342-9.703a4.545 4.545 0 0 0 3.098-4.265C28.197 2.04 26.113 0 23.55 0a4.603 4.603 0 0 0-4.646 4.545c0 1.955 1.277 3.608 3.046 4.25l-8.355 9.717-5.86-2.06c.952-.832 1.559-2.029 1.559-3.371 0-2.504-2.084-4.542-4.646-4.542C2.087 8.539 0 10.577 0 13.08a4.568 4.568 0 0 0 3.547 4.402v12.315a.494.494 0 0 0 .02.128l.012.043a1.322 1.322 0 0 1 .019.07 1.567 1.567 0 0 0-.05.364 1.497 1.497 0 0 0 0 .025 2.098 2.098 0 0 0 1.027 1.665c3.836 2.791 17.193 2.886 18.94 2.886 1.794 0 15.853-.1 19.237-3.124a1.907 1.907 0 0 0 .731-1.427 1.583 1.583 0 0 0-.044-.364 1.864 1.864 0 0 0-.006-.024c.022-.08.05-.153.05-.237a.405.405 0 0 0 0-.005V17.483a4.565 4.565 0 0 0 3.549-4.402 4.19 4.19 0 0 0 0-.006A4.596 4.596 0 0 0 42.39 8.54ZM13.572 20.855a1.157 1.157 0 0 0 .303.06c.354.023.707-.116.943-.39l8.699-10.12 8.7 10.12a1.143 1.143 0 0 0 .87.394c.125 0 .253-.02.376-.063l7.76-2.73v9.956a14.487 14.487 0 0 0-1.966-.67c-5.433-1.473-14.336-1.534-15.742-1.534a66.845 66.845 0 0 0-.517.002c-2.53.02-11.246.206-16.107 1.795a12.314 12.314 0 0 0-1.083.407v-9.958l7.764 2.731ZM6.957 30.903a11.25 11.25 0 0 0 .45.155c2.535.815 7.927 1.71 16.111 1.71 8.711 0 14.257-1.013 16.564-1.865.326-.12.593-.237.792-.348a2.045 2.045 0 0 0 .203-.127c-.625-.453-2.472-1.05-5.504-1.527a51.736 51.736 0 0 0-1.463-.208 66.03 66.03 0 0 0-2.961-.31 83.399 83.399 0 0 0-3.463-.212 101.691 101.691 0 0 0-4.168-.083 102.086 102.086 0 0 0-3.99.076 84.2 84.2 0 0 0-3.485.206 66.41 66.41 0 0 0-3.114.323c-3.359.43-5.56 1.017-6.57 1.505a2.682 2.682 0 0 0-.399.23 1.892 1.892 0 0 0 .091.06c.136.084.315.174.532.267a7.788 7.788 0 0 0 .374.148ZM23.55 2.213a2.364 2.364 0 0 0-2.386 2.334c0 1.286 1.07 2.332 2.386 2.332a2.363 2.363 0 0 0 2.385-2.332c0-1.287-1.071-2.335-2.385-2.335ZM40.003 13.08a2.364 2.364 0 0 0 2.387 2.334 2.368 2.368 0 0 0 2.387-2.334c0-1.286-1.074-2.332-2.387-2.332a2.363 2.363 0 0 0-2.387 2.332ZM4.652 10.749a2.363 2.363 0 0 0-2.387 2.332 2.364 2.364 0 0 0 2.387 2.334 2.363 2.363 0 0 0 2.386-2.334 2.362 2.362 0 0 0-2.386-2.332Z" fill="rgba(241, 109, 127, 1)" fill-rule="evenodd" data-name="Forma 1"/></svg>